<svg width="691" height="149" viewBox="0 0 691 149" fill="none" xmlns="http://www.w3.org/2000/svg">
<g opacity="0.2">
<path d="M0 0.46875H29.8343V84.6152L72.7463 33.7855H111.525L56.2724 93.2647L108.695 148.739H69.9157L29.8343 101.327V148.739H0V0.46875Z" fill="#8B949E"/>
<path d="M166.208 148.742C132.128 148.742 106.312 126.21 106.312 91.2381C106.312 56.2661 132.977 33.7344 167.057 33.7344C201.138 33.7344 227.802 56.0525 227.802 91.2381C227.802 126.424 200.515 148.742 166.208 148.742ZM166.208 124.235C182.003 124.235 197.118 113.396 197.118 91.2915C197.118 69.1871 182.399 58.3485 166.661 58.3485C150.923 58.3485 136.6 68.9735 136.6 91.2915C136.6 113.61 150.244 124.235 166.208 124.235Z" fill="#8B949E"/>
<path d="M284.308 148.742C254.7 148.742 234.036 132.457 232.734 111.741H262.795C263.871 120.177 272.193 126.637 284.082 126.637C295.97 126.637 302.197 121.618 302.197 115.158C302.197 95.2424 235.508 107.896 235.508 67.1046C235.508 48.6308 253.001 33.7344 282.157 33.7344C311.312 33.7344 327.956 48.4174 329.654 70.5218H301.122C300.273 61.8722 293.026 56.0523 281.308 56.0523C270.212 56.0523 264.494 60.2703 264.494 66.7308C264.494 87.0199 329.937 74.366 330.786 115.158C330.786 134.272 313.123 148.742 284.308 148.742Z" fill="#8B949E"/>
<path d="M509.725 85.2594C509.725 67.5865 499.308 58.3498 483.514 58.3498C467.719 58.3498 457.076 67.5865 457.076 85.2594V148.743H427.241V85.2594C427.241 67.5865 416.825 58.3498 401.03 58.3498C385.235 58.3498 374.366 67.5865 374.366 85.2594V148.743H344.531V33.7891H374.366V48.8458C381.838 39.6089 394.406 33.7891 409.125 33.7891C427.468 33.7891 442.583 41.2106 450.679 55.0926C458.321 42.4386 473.89 33.7891 491.156 33.7891C519.519 33.7891 539.503 50.661 539.503 81.415V148.743H509.668V85.2594H509.725Z" fill="#8B949E"/>
<path d="M656.586 33.7891C685.967 33.7891 705.838 48.2584 712.179 73.1927H680.023C676.626 63.7422 668.701 57.7091 656.359 57.7091C639.715 57.7091 628.676 69.5621 628.676 91.2928C628.676 113.023 639.772 124.663 656.359 124.663C668.701 124.663 676.4 119.431 680.023 109.393H712.179C705.782 133.099 685.967 148.796 656.586 148.796C622.505 148.796 598.219 126.265 598.219 91.2928C598.219 56.3207 622.505 33.7891 656.586 33.7891Z" fill="#8B949E"/>
<path d="M572.227 47.7281C566.905 47.7281 561.867 46.5536 557.281 44.5781V148.747H587.116V44.5781C582.587 46.5536 577.548 47.7281 572.227 47.7281Z" fill="#8B949E"/>
<path d="M572.23 28.4469C580.452 28.4469 587.117 22.1611 587.117 14.4071C587.117 6.65307 580.452 0.367188 572.23 0.367188C564.009 0.367188 557.344 6.65307 557.344 14.4071C557.344 22.1611 564.009 28.4469 572.23 28.4469Z" fill="#8B949E"/>
</g>
</svg>
