<svg width="113" height="23" viewBox="0 0 113 23" fill="none" xmlns="http://www.w3.org/2000/svg">
<path d="M29.1013 0H25.462C24.9374 0 24.4318 0.197946 24.0597 0.548825L14.8447 9.23984C13.6808 10.3375 13.6808 12.1099 14.8447 13.2075L24.0597 21.8985C24.4318 22.2494 24.9374 22.4473 25.462 22.4473H29.1013C29.9217 22.4473 30.5895 21.8175 30.5895 21.0438V1.40354C30.5895 0.629808 29.9217 0 29.1013 0Z" fill="url(#paint0_linear_1802_3180)"/>
<path d="M12.7413 1.50244C12.7413 0.647733 11.94 -0.00905257 11.0432 0.112406C5.27666 0.890638 0.84082 5.56903 0.84082 11.2236C0.84082 16.8781 5.27666 21.5565 11.0432 22.3348C11.94 22.4562 12.7413 21.7994 12.7413 20.9447V1.50694V1.50244Z" fill="url(#paint1_linear_1802_3180)"/>
<path d="M36.9756 3.31226H40.1604V12.2948L44.7412 6.86879H48.8808L42.9826 13.2181L48.5786 19.14H44.439L40.1604 14.0788V19.14H36.9756V3.31226Z" fill="white"/>
<path d="M54.7186 19.1407C51.0806 19.1407 48.3248 16.7355 48.3248 13.0022C48.3248 9.26901 51.1712 6.86377 54.8093 6.86377C58.4473 6.86377 61.2937 9.24621 61.2937 13.0022C61.2937 16.7583 58.3809 19.1407 54.7186 19.1407ZM54.7186 16.5246C56.4047 16.5246 58.0182 15.3676 58.0182 13.0079C58.0182 10.6483 56.447 9.4913 54.767 9.4913C53.087 9.4913 51.558 10.6255 51.558 13.0079C51.558 15.3904 53.0144 16.5246 54.7186 16.5246Z" fill="white"/>
<path d="M67.3249 19.1407C64.1642 19.1407 61.9585 17.4023 61.8195 15.1909H65.0284C65.1433 16.0914 66.0316 16.7811 67.3007 16.7811C68.5698 16.7811 69.2345 16.2453 69.2345 15.5556C69.2345 13.4297 62.1156 14.7805 62.1156 10.426C62.1156 8.45395 63.9829 6.86377 67.0952 6.86377C70.2075 6.86377 71.9842 8.43116 72.1655 10.7908H69.1197C69.0291 9.86746 68.2556 9.24619 67.0046 9.24619C65.8201 9.24619 65.2097 9.69646 65.2097 10.3861C65.2097 12.552 72.1958 11.2012 72.2864 15.5556C72.2864 17.5961 70.4009 19.1407 67.3249 19.1407Z" fill="white"/>
<path d="M91.3893 12.3635C91.3893 10.477 90.2773 9.49097 88.5912 9.49097C86.9052 9.49097 85.769 10.477 85.769 12.3635V19.1404H82.5842V12.3635C82.5842 10.477 81.4723 9.49097 79.7862 9.49097C78.1001 9.49097 76.9398 10.477 76.9398 12.3635V19.1404H73.755V6.86914H76.9398V8.47643C77.7375 7.4904 79.0791 6.86914 80.6504 6.86914C82.6084 6.86914 84.222 7.66138 85.0862 9.14327C85.902 7.79247 87.5639 6.86914 89.4071 6.86914C92.4348 6.86914 94.5681 8.6702 94.5681 11.9532V19.1404H91.3832V12.3635H91.3893Z" fill="white"/>
<path d="M107.065 6.86914C110.202 6.86914 112.323 8.41373 113 11.0754H109.567C109.205 10.0666 108.359 9.42258 107.041 9.42258C105.265 9.42258 104.086 10.6879 104.086 13.0076C104.086 15.3273 105.271 16.5698 107.041 16.5698C108.359 16.5698 109.181 16.0113 109.567 14.9398H113C112.317 17.4704 110.202 19.1461 107.065 19.1461C103.427 19.1461 100.835 16.7408 100.835 13.0076C100.835 9.27438 103.427 6.86914 107.065 6.86914Z" fill="white"/>
<path d="M98.0607 8.35652C97.4927 8.35652 96.9548 8.23115 96.4653 8.02026V19.1402H99.6501V8.02026C99.1667 8.23115 98.6288 8.35652 98.0607 8.35652Z" fill="white"/>
<path d="M98.0608 6.299C98.9384 6.299 99.6499 5.62799 99.6499 4.80026C99.6499 3.97253 98.9384 3.30151 98.0608 3.30151C97.1832 3.30151 96.4717 3.97253 96.4717 4.80026C96.4717 5.62799 97.1832 6.299 98.0608 6.299Z" fill="white"/>
<defs>
<linearGradient id="paint0_linear_1802_3180" x1="5.9828" y1="12.7364" x2="41.0731" y2="12.7364" gradientUnits="userSpaceOnUse">
<stop stop-color="#523FD7"/>
<stop offset="1" stop-color="#CB6AF5"/>
</linearGradient>
<linearGradient id="paint1_linear_1802_3180" x1="-4.88035" y1="12.7231" x2="20.2489" y2="12.7231" gradientUnits="userSpaceOnUse">
<stop stop-color="#1628C7"/>
<stop offset="0.650536" stop-color="#523FD7"/>
</linearGradient>
</defs>
</svg>
