<svg width="218" height="77" viewBox="0 0 218 77" fill="none" xmlns="http://www.w3.org/2000/svg">
<rect x="0.497559" y="1.39355" width="216.3" height="75.0393" rx="7.5" stroke="#778292"/>
<path d="M63.1674 34.1506C63.1674 33.0042 64.1081 32.563 65.6665 32.563C67.9006 32.563 70.7228 33.2394 72.9572 34.4447V27.5358C70.5172 26.5657 68.1065 26.1835 65.6665 26.1835C59.6983 26.1835 55.7295 29.2999 55.7295 34.5036C55.7295 42.6174 66.901 41.3241 66.901 44.8226C66.901 46.1747 65.7252 46.6158 64.0787 46.6158C61.6387 46.6158 58.5224 45.6162 56.0528 44.2639V51.2608C58.7869 52.4368 61.5505 52.9364 64.0787 52.9364C70.1937 52.9364 74.3977 49.9085 74.3977 44.6461C74.3684 35.8853 63.1674 37.4433 63.1674 34.1506ZM83.0409 20.3039L75.8676 21.8325L75.8383 45.381C75.8383 49.7322 79.1016 52.9364 83.4527 52.9364C85.8633 52.9364 87.6272 52.4955 88.5973 51.9663V45.9984C87.6568 46.3806 83.0116 47.7329 83.0116 43.3819V32.9452H88.5973V26.6834H83.0116L83.0409 20.3039ZM97.7405 28.8588L97.27 26.6834H90.9199V52.4073H98.2697V34.9739C100.004 32.7102 102.944 33.1218 103.855 33.4451V26.6834C102.915 26.3305 99.475 25.6837 97.7405 28.8588ZM105.649 26.6834H113.028V52.4073H105.649V26.6834ZM105.649 24.449L113.028 22.8615V16.8936L105.649 18.4517V24.449ZM128.374 26.1835C125.493 26.1835 123.641 27.5358 122.612 28.4768L122.23 26.654H115.762V60.9328L123.112 59.3748L123.141 51.055C124.199 51.8194 125.757 52.9071 128.345 52.9071C133.607 52.9071 138.399 48.6736 138.399 39.3543C138.37 30.8285 133.519 26.1835 128.374 26.1835ZM126.61 46.4393C124.876 46.4393 123.846 45.8221 123.141 45.0577L123.112 34.1506C123.876 33.2981 124.934 32.7102 126.61 32.7102C129.285 32.7102 131.138 35.7088 131.138 39.56C131.138 43.4995 129.315 46.4393 126.61 46.4393ZM161.565 39.6483C161.565 32.1221 157.92 26.1835 150.952 26.1835C143.955 26.1835 139.722 32.1223 139.722 39.5895C139.722 48.4384 144.72 52.9071 151.893 52.9071C155.391 52.9071 158.037 52.1133 160.036 50.9962V45.1164C158.038 46.116 155.744 46.7335 152.834 46.7335C149.982 46.7335 147.454 45.7338 147.13 42.2648H161.507C161.507 41.8824 161.565 40.3538 161.565 39.6483ZM147.042 36.8554C147.042 33.5333 149.071 32.1515 150.923 32.1515C152.716 32.1515 154.627 33.5333 154.627 36.8554H147.042Z" fill="#FFFCFC"/>
</svg>
